<svg width="207" height="155" viewBox="0 0 207 155" fill="none" xmlns="http://www.w3.org/2000/svg">
<path d="M10.7982 16.2883C15.7975 30.5401 15.9729 39.1266 15.9729 58.3355V103.569C15.9729 111.359 17.6394 121.628 23.6912 126.85C30.357 132.693 38.5137 136.233 52.8101 138.092C67.1064 139.863 76.7542 142.341 84.4724 144.997C92.1907 147.653 95.6113 149.954 98.1549 151.901C100.26 153.495 101.926 155 103.33 155C104.733 155 106.399 153.406 108.504 151.901C111.048 149.954 114.468 147.653 122.187 144.997C129.905 142.341 139.553 139.863 153.849 138.092C168.145 136.322 176.214 132.693 182.968 126.85C188.932 121.628 190.686 111.359 190.686 103.569V58.424C190.686 39.1266 190.774 30.6286 195.861 16.3769C198.141 9.82635 202.79 4.16105 207 0.000593949H0.0102334C-0.340596 -0.0879264 8.43008 9.73783 10.7982 16.2883Z" fill="white"/>
</svg>
