<svg width="198" height="151" viewBox="0 0 198 151" fill="none" xmlns="http://www.w3.org/2000/svg">
<path d="M197.211 0H195.983C192.05 4.28938 188.982 9.31036 186.95 14.7829C181.512 30.0969 181.512 39.5686 181.512 58.5119V103.746C181.512 112.775 179.231 120.122 175.46 123.397C169.057 128.974 161.339 131.895 148.884 133.489C137.8 134.731 126.868 137.104 116.257 140.57C107.925 143.403 104.154 145.97 101.259 148.183C100.909 148.449 100.47 148.803 100.119 149.068C99.7684 149.334 99.4176 149.599 98.9791 149.953C98.6282 149.688 98.1897 149.334 97.8388 149.068C97.488 148.803 97.0494 148.449 96.6986 148.183C93.8042 145.97 90.0328 143.403 81.7006 140.57C72.3159 137.295 61.8788 135.082 49.0735 133.489C36.6191 131.895 28.9885 128.974 22.4981 123.397C18.7267 120.122 16.4463 112.775 16.4463 103.746V58.5119C16.4463 39.6571 16.4464 30.1854 11.0085 14.7829C9.25434 9.82576 4.69358 3.71785 1.71153 0H0.571289C3.46563 3.54081 8.37725 9.91428 10.2191 15.0485C15.5693 30.274 15.5692 39.6571 15.5692 58.4234V103.657C15.5692 112.952 17.9374 120.476 21.8842 123.928C28.4623 129.594 36.2682 132.603 48.898 134.197C59.9257 135.438 70.7992 137.811 81.3498 141.278C89.5943 144.111 93.278 146.59 96.0847 148.803C96.4355 149.068 96.8741 149.422 97.2249 149.688C97.6635 150.042 98.1897 150.396 98.6282 150.75L98.8913 150.927L99.1544 150.75C99.593 150.396 100.119 150.042 100.558 149.688C100.921 149.372 101.302 149.076 101.698 148.803C104.505 146.678 108.276 144.111 116.521 141.278C127.069 137.801 137.943 135.428 148.972 134.197C161.602 132.603 169.408 129.594 175.986 123.928C179.933 120.476 182.301 112.863 182.301 103.657V58.5119C182.301 39.7456 182.301 30.274 187.651 15.137C189.863 9.52756 193.107 4.39145 197.211 0Z" fill="#EAEAEA"/>
</svg>
